G04*
G04 #@! TF.GenerationSoftware,Altium Limited,Altium Designer,26.9.1 (10)*
G04*
G04 Layer_Physical_Order=3*
G04 Layer_Color=16440176*
G04 Board_Origin=0|0*
%FSLAX44Y44*%
%MOMM*%
G71*
G04*
G04 #@! TF.SameCoordinates,B75E33D5-6696-437A-8ECA-4B40B54654F2*
G04*
G04*
G04 #@! TF.FilePolarity,Positive*
G04*
G01*
G75*
%ADD44C,1.0160*%
%ADD45C,0.7000*%
%ADD46C,1.2700*%
%ADD47C,0.5000*%
%ADD50C,0.2540*%
D44*
X880400Y905000D02*
D03*
X829600Y894840D02*
D03*
Y915160D02*
D03*
D45*
X795000Y925000D02*
D03*
X815000D02*
D03*
D46*
X741165Y800250D02*
D03*
D47*
X802000Y854500D02*
D03*
X791000D02*
D03*
X813000D02*
D03*
X791000Y843500D02*
D03*
X780000Y854500D02*
D03*
Y843500D02*
D03*
X813000D02*
D03*
X802000D02*
D03*
X813000Y832500D02*
D03*
X802000D02*
D03*
X780000D02*
D03*
X769000D02*
D03*
X791000D02*
D03*
X769000Y854500D02*
D03*
Y843500D02*
D03*
X813000Y821500D02*
D03*
X802000D02*
D03*
Y810500D02*
D03*
X791000D02*
D03*
Y821500D02*
D03*
X780000Y810500D02*
D03*
X813000D02*
D03*
X769000Y821500D02*
D03*
X780000D02*
D03*
X769000Y810500D02*
D03*
D50*
X887540Y797775D02*
Y785079D01*
X890079Y782540D01*
X895157D01*
X897697Y785079D01*
Y797775D01*
X912932Y795236D02*
X910393Y797775D01*
X905314D01*
X902775Y795236D01*
Y792697D01*
X905314Y790157D01*
X910393D01*
X912932Y787618D01*
Y785079D01*
X910393Y782540D01*
X905314D01*
X902775Y785079D01*
X918010Y797775D02*
Y782540D01*
X925628D01*
X928167Y785079D01*
Y787618D01*
X925628Y790157D01*
X918010D01*
X925628D01*
X928167Y792697D01*
Y795236D01*
X925628Y797775D01*
X918010D01*
X1002540Y817540D02*
Y832775D01*
X1007618Y827697D01*
X1012697Y832775D01*
Y817540D01*
X1020314Y827697D02*
X1025393D01*
X1027932Y825157D01*
Y817540D01*
X1020314D01*
X1017775Y820079D01*
X1020314Y822618D01*
X1027932D01*
X1033010Y832775D02*
Y817540D01*
Y825157D01*
X1035549Y827697D01*
X1040628D01*
X1043167Y825157D01*
Y817540D01*
X1048245D02*
Y827697D01*
X1050784D01*
X1053324Y825157D01*
Y817540D01*
Y825157D01*
X1055863Y827697D01*
X1058402Y825157D01*
Y817540D01*
X1066020D02*
X1071098D01*
X1073637Y820079D01*
Y825157D01*
X1071098Y827697D01*
X1066020D01*
X1063480Y825157D01*
Y820079D01*
X1066020Y817540D01*
X1078715Y827697D02*
Y820079D01*
X1081255Y817540D01*
X1088872D01*
Y827697D01*
X1104107Y832775D02*
Y817540D01*
X1096490D01*
X1093950Y820079D01*
Y825157D01*
X1096490Y827697D01*
X1104107D01*
M02*
