G04*
G04 #@! TF.GenerationSoftware,Altium Limited,Altium Designer,26.9.1 (10)*
G04*
G04 Layer_Color=8388736*
G04 Board_Origin=0|0*
%FSLAX44Y44*%
%MOMM*%
G71*
G04*
G04 #@! TF.SameCoordinates,B75E33D5-6696-437A-8ECA-4B40B54654F2*
G04*
G04*
G04 #@! TF.FilePolarity,Negative*
G04*
G01*
G75*
G04:AMPARAMS|DCode=14|XSize=0.59mm|YSize=0.6mm|CornerRadius=0.1564mm|HoleSize=0mm|Usage=FLASHONLY|Rotation=180.000|XOffset=0mm|YOffset=0mm|HoleType=Round|Shape=RoundedRectangle|*
%AMROUNDEDRECTD14*
21,1,0.5900,0.2873,0,0,180.0*
21,1,0.2773,0.6000,0,0,180.0*
1,1,0.3127,-0.1386,0.1437*
1,1,0.3127,0.1386,0.1437*
1,1,0.3127,0.1386,-0.1437*
1,1,0.3127,-0.1386,-0.1437*
%
%ADD14ROUNDEDRECTD14*%
%ADD15O,0.8000X0.2500*%
%ADD16R,0.7900X0.2800*%
G04:AMPARAMS|DCode=17|XSize=0.59mm|YSize=0.6mm|CornerRadius=0.1564mm|HoleSize=0mm|Usage=FLASHONLY|Rotation=90.000|XOffset=0mm|YOffset=0mm|HoleType=Round|Shape=RoundedRectangle|*
%AMROUNDEDRECTD17*
21,1,0.5900,0.2873,0,0,90.0*
21,1,0.2773,0.6000,0,0,90.0*
1,1,0.3127,0.1437,0.1386*
1,1,0.3127,0.1437,-0.1386*
1,1,0.3127,-0.1437,-0.1386*
1,1,0.3127,-0.1437,0.1386*
%
%ADD17ROUNDEDRECTD17*%
%ADD18R,0.2800X0.7900*%
%ADD19R,1.3800X0.4500*%
%ADD20R,0.9700X0.9200*%
%ADD22R,0.9200X0.9700*%
%ADD23R,1.0043X0.8721*%
%ADD24O,0.2500X0.8000*%
%ADD25R,5.6000X5.6000*%
%ADD27R,1.4000X1.1500*%
%ADD31R,1.3000X1.6500*%
%ADD32R,1.9000X1.8000*%
%ADD33R,1.9000X1.0000*%
%ADD34R,1.5500X1.4250*%
G04:AMPARAMS|DCode=35|XSize=1.0043mm|YSize=0.8721mm|CornerRadius=0.4361mm|HoleSize=0mm|Usage=FLASHONLY|Rotation=0.000|XOffset=0mm|YOffset=0mm|HoleType=Round|Shape=RoundedRectangle|*
%AMROUNDEDRECTD35*
21,1,1.0043,0.0000,0,0,0.0*
21,1,0.1322,0.8721,0,0,0.0*
1,1,0.8721,0.0661,0.0000*
1,1,0.8721,-0.0661,0.0000*
1,1,0.8721,-0.0661,0.0000*
1,1,0.8721,0.0661,0.0000*
%
%ADD35ROUNDEDRECTD35*%
G04:AMPARAMS|DCode=36|XSize=1.0043mm|YSize=3.1821mm|CornerRadius=0.4369mm|HoleSize=0mm|Usage=FLASHONLY|Rotation=0.000|XOffset=0mm|YOffset=0mm|HoleType=Round|Shape=RoundedRectangle|*
%AMROUNDEDRECTD36*
21,1,1.0043,2.3084,0,0,0.0*
21,1,0.1306,3.1821,0,0,0.0*
1,1,0.8737,0.0653,-1.1542*
1,1,0.8737,-0.0653,-1.1542*
1,1,0.8737,-0.0653,1.1542*
1,1,0.8737,0.0653,1.1542*
%
%ADD36ROUNDEDRECTD36*%
%ADD37R,0.8040X0.9040*%
%ADD38C,0.7874*%
%ADD39R,0.9040X0.8040*%
%ADD40R,0.8040X1.9040*%
%ADD41R,0.8000X0.6000*%
%ADD42R,5.6040X3.1040*%
%ADD43R,1.2040X2.9040*%
%ADD44C,1.0160*%
%ADD45C,0.7000*%
%ADD46C,1.2700*%
%ADD47C,0.5000*%
D14*
X914050Y900000D02*
D03*
X905950D02*
D03*
X1024050Y920000D02*
D03*
X849050Y865000D02*
D03*
X1000950Y850000D02*
D03*
X830950Y780000D02*
D03*
X768100Y880000D02*
D03*
X720950Y805000D02*
D03*
X729050D02*
D03*
X760000Y880000D02*
D03*
X840950Y865000D02*
D03*
X839050Y780000D02*
D03*
X1009050Y850000D02*
D03*
X1015950Y920000D02*
D03*
D15*
X757000Y830000D02*
D03*
X825000Y855000D02*
D03*
X757000Y825000D02*
D03*
Y860000D02*
D03*
Y855000D02*
D03*
Y850000D02*
D03*
Y845000D02*
D03*
Y840000D02*
D03*
Y835000D02*
D03*
Y820000D02*
D03*
Y815000D02*
D03*
Y810000D02*
D03*
Y805000D02*
D03*
X825000D02*
D03*
Y810000D02*
D03*
Y815000D02*
D03*
Y820000D02*
D03*
Y825000D02*
D03*
Y830000D02*
D03*
Y835000D02*
D03*
Y840000D02*
D03*
Y845000D02*
D03*
Y850000D02*
D03*
Y860000D02*
D03*
D16*
X1024700Y897500D02*
D03*
X985300D02*
D03*
X1024700Y892500D02*
D03*
Y887500D02*
D03*
Y882500D02*
D03*
Y877500D02*
D03*
Y872500D02*
D03*
X985300D02*
D03*
Y877500D02*
D03*
Y882500D02*
D03*
Y887500D02*
D03*
Y892500D02*
D03*
D17*
X1055000Y865950D02*
D03*
X1040000D02*
D03*
X745000Y850950D02*
D03*
X705000Y829050D02*
D03*
X745000Y824050D02*
D03*
X1040000Y874050D02*
D03*
X705000Y820950D02*
D03*
X745000Y815950D02*
D03*
Y859050D02*
D03*
X1055000Y874050D02*
D03*
D18*
X1012500Y865300D02*
D03*
X1002500D02*
D03*
X992500Y904700D02*
D03*
X997500D02*
D03*
X1002500D02*
D03*
X1007500D02*
D03*
X1012500D02*
D03*
X1017500D02*
D03*
Y865300D02*
D03*
X1007500D02*
D03*
X997500D02*
D03*
X992500D02*
D03*
D19*
X899962Y859962D02*
D03*
Y833962D02*
D03*
Y840462D02*
D03*
Y846963D02*
D03*
Y853463D02*
D03*
D20*
X960000Y767250D02*
D03*
X840000Y737750D02*
D03*
X720000Y845000D02*
D03*
Y860500D02*
D03*
X960000Y782750D02*
D03*
X840000Y722250D02*
D03*
D22*
X955000Y690000D02*
D03*
X887250Y760000D02*
D03*
X812750Y780000D02*
D03*
X797250D02*
D03*
X970500Y690000D02*
D03*
X902750Y760000D02*
D03*
D23*
X867050Y722900D02*
D03*
D24*
X768500Y866500D02*
D03*
X813500Y798500D02*
D03*
X783500Y866500D02*
D03*
X763500Y798500D02*
D03*
X768500D02*
D03*
X773500D02*
D03*
X778500D02*
D03*
X783500D02*
D03*
X788500D02*
D03*
X793500D02*
D03*
X798500D02*
D03*
X803500D02*
D03*
X808500D02*
D03*
X818500D02*
D03*
Y866500D02*
D03*
X813500D02*
D03*
X808500D02*
D03*
X803500D02*
D03*
X798500D02*
D03*
X793500D02*
D03*
X788500D02*
D03*
X778500D02*
D03*
X773500D02*
D03*
X763500D02*
D03*
D25*
X791000Y832500D02*
D03*
D27*
X726000Y762000D02*
D03*
X704000Y778000D02*
D03*
X726000D02*
D03*
X704000Y762000D02*
D03*
D31*
X926562Y813213D02*
D03*
Y880713D02*
D03*
D32*
Y835462D02*
D03*
D33*
Y862462D02*
D03*
D34*
X900813Y822087D02*
D03*
Y871837D02*
D03*
D35*
X867050Y700000D02*
D03*
Y677100D02*
D03*
D36*
X932950Y700000D02*
D03*
D37*
X770000Y915000D02*
D03*
X780000D02*
D03*
X910000D02*
D03*
X845000Y800000D02*
D03*
X770000Y895000D02*
D03*
X780000D02*
D03*
X900000Y915000D02*
D03*
X720000Y795000D02*
D03*
X730000D02*
D03*
X855000Y800000D02*
D03*
X795000Y915000D02*
D03*
X805000D02*
D03*
D38*
X867700Y911350D02*
D03*
X855000D02*
D03*
X842300D02*
D03*
Y898650D02*
D03*
X855000D02*
D03*
X867700D02*
D03*
D39*
X950000Y735000D02*
D03*
Y745000D02*
D03*
D40*
X786250Y713750D02*
D03*
X723750D02*
D03*
X736250D02*
D03*
X748750D02*
D03*
X761250D02*
D03*
X773750D02*
D03*
D41*
X845500Y810000D02*
D03*
X854500D02*
D03*
X925500Y760000D02*
D03*
X934500D02*
D03*
D42*
X1045000Y685500D02*
D03*
Y784500D02*
D03*
D43*
X705250Y681750D02*
D03*
X804750D02*
D03*
D44*
X880400Y905000D02*
D03*
X829600Y894840D02*
D03*
Y915160D02*
D03*
D45*
X795000Y925000D02*
D03*
X815000D02*
D03*
D46*
X741165Y800250D02*
D03*
D47*
X802000Y854500D02*
D03*
X791000D02*
D03*
X813000D02*
D03*
X791000Y843500D02*
D03*
X780000Y854500D02*
D03*
Y843500D02*
D03*
X813000D02*
D03*
X802000D02*
D03*
X813000Y832500D02*
D03*
X802000D02*
D03*
X780000D02*
D03*
X769000D02*
D03*
X791000D02*
D03*
X769000Y854500D02*
D03*
Y843500D02*
D03*
X813000Y821500D02*
D03*
X802000D02*
D03*
Y810500D02*
D03*
X791000D02*
D03*
Y821500D02*
D03*
X780000Y810500D02*
D03*
X813000D02*
D03*
X769000Y821500D02*
D03*
X780000D02*
D03*
X769000Y810500D02*
D03*
M02*
