M48
;Layer_Color=9474304
;FILE_FORMAT=4:4
METRIC,LZ
;TYPE=PLATED
T01F00S00C0.2000
T02F00S00C0.3000
T03F00S00C0.7112
%
T01
X00769Y008105
Y008215
Y008325
X0078
Y008435
X00791
Y008545
X0078
X00769
Y008435
X00791Y008325
Y008215
Y008105
X0078
Y008215
X00802
X00813
Y008105
X00802
Y008325
X00813
Y008435
X00802
Y008545
X00813
T02
X00795Y00925
X00815
T03
X00741165Y0080025
M30
