G04*
G04 #@! TF.GenerationSoftware,Altium Limited,Altium Designer,26.9.1 (10)*
G04*
G04 Layer_Physical_Order=1*
G04 Layer_Color=255*
G04 Board_Origin=0|0*
%FSLAX44Y44*%
%MOMM*%
G71*
G04*
G04 #@! TF.SameCoordinates,B75E33D5-6696-437A-8ECA-4B40B54654F2*
G04*
G04*
G04 #@! TF.FilePolarity,Positive*
G04*
G01*
G75*
%ADD10C,0.2000*%
%ADD11C,0.2500*%
%ADD13R,0.6000X0.7000*%
G04:AMPARAMS|DCode=14|XSize=0.59mm|YSize=0.6mm|CornerRadius=0.1564mm|HoleSize=0mm|Usage=FLASHONLY|Rotation=180.000|XOffset=0mm|YOffset=0mm|HoleType=Round|Shape=RoundedRectangle|*
%AMROUNDEDRECTD14*
21,1,0.5900,0.2873,0,0,180.0*
21,1,0.2773,0.6000,0,0,180.0*
1,1,0.3127,-0.1386,0.1437*
1,1,0.3127,0.1386,0.1437*
1,1,0.3127,0.1386,-0.1437*
1,1,0.3127,-0.1386,-0.1437*
%
%ADD14ROUNDEDRECTD14*%
%ADD15O,0.8000X0.2500*%
%ADD16R,0.7900X0.2800*%
G04:AMPARAMS|DCode=17|XSize=0.59mm|YSize=0.6mm|CornerRadius=0.1564mm|HoleSize=0mm|Usage=FLASHONLY|Rotation=90.000|XOffset=0mm|YOffset=0mm|HoleType=Round|Shape=RoundedRectangle|*
%AMROUNDEDRECTD17*
21,1,0.5900,0.2873,0,0,90.0*
21,1,0.2773,0.6000,0,0,90.0*
1,1,0.3127,0.1437,0.1386*
1,1,0.3127,0.1437,-0.1386*
1,1,0.3127,-0.1437,-0.1386*
1,1,0.3127,-0.1437,0.1386*
%
%ADD17ROUNDEDRECTD17*%
%ADD18R,0.2800X0.7900*%
%ADD19R,1.3800X0.4500*%
%ADD20R,0.9700X0.9200*%
%ADD21R,0.7000X0.6000*%
%ADD22R,0.9200X0.9700*%
%ADD23R,1.0043X0.8721*%
%ADD24O,0.2500X0.8000*%
%ADD25R,5.6000X5.6000*%
%ADD26R,0.6000X1.7000*%
%ADD27R,1.4000X1.1500*%
%ADD28R,0.7000X0.5000*%
%ADD29R,5.4000X2.9000*%
%ADD30R,1.0000X2.7000*%
%ADD31R,1.3000X1.6500*%
%ADD32R,1.9000X1.8000*%
%ADD33R,1.9000X1.0000*%
%ADD34R,1.5500X1.4250*%
G04:AMPARAMS|DCode=35|XSize=1.0043mm|YSize=0.8721mm|CornerRadius=0.4361mm|HoleSize=0mm|Usage=FLASHONLY|Rotation=0.000|XOffset=0mm|YOffset=0mm|HoleType=Round|Shape=RoundedRectangle|*
%AMROUNDEDRECTD35*
21,1,1.0043,0.0000,0,0,0.0*
21,1,0.1322,0.8721,0,0,0.0*
1,1,0.8721,0.0661,0.0000*
1,1,0.8721,-0.0661,0.0000*
1,1,0.8721,-0.0661,0.0000*
1,1,0.8721,0.0661,0.0000*
%
%ADD35ROUNDEDRECTD35*%
G04:AMPARAMS|DCode=36|XSize=1.0043mm|YSize=3.1821mm|CornerRadius=0.4369mm|HoleSize=0mm|Usage=FLASHONLY|Rotation=0.000|XOffset=0mm|YOffset=0mm|HoleType=Round|Shape=RoundedRectangle|*
%AMROUNDEDRECTD36*
21,1,1.0043,2.3084,0,0,0.0*
21,1,0.1306,3.1821,0,0,0.0*
1,1,0.8737,0.0653,-1.1542*
1,1,0.8737,-0.0653,-1.1542*
1,1,0.8737,-0.0653,1.1542*
1,1,0.8737,0.0653,1.1542*
%
%ADD36ROUNDEDRECTD36*%
%ADD38C,0.7874*%
%ADD44C,1.0160*%
%ADD45C,0.7000*%
%ADD46C,1.2700*%
%ADD47C,0.5000*%
%ADD48C,0.3810*%
%ADD49C,0.3000*%
%ADD50C,0.2540*%
D10*
X815000Y770000D02*
Y777750D01*
Y770000D02*
X852768D01*
X855000Y772232D01*
Y785000D01*
X845000Y795000D02*
X855000Y785000D01*
X845000Y795000D02*
Y800000D01*
X805000Y915000D02*
Y933828D01*
X806172Y935000D02*
X995000D01*
X805000Y933828D02*
X806172Y935000D01*
X815000Y925000D02*
X820000Y930000D01*
X780000Y908000D02*
Y915000D01*
Y908000D02*
X781500Y906500D01*
X788500D01*
Y866500D02*
Y906500D01*
X820000Y930000D02*
X990000D01*
X992500Y927500D01*
Y904700D02*
Y927500D01*
X805000Y905000D02*
Y915000D01*
X997500Y904700D02*
Y932500D01*
X995000Y935000D02*
X997500Y932500D01*
X1000000Y855000D02*
X1002500Y857500D01*
X1000000Y850950D02*
Y855000D01*
Y850950D02*
X1000950Y850000D01*
X1002500Y857500D02*
Y865300D01*
X1024050Y897900D02*
Y920000D01*
X1024450Y897500D02*
X1024700D01*
X1024050Y897900D02*
X1024450Y897500D01*
X1040000Y865950D02*
X1055000D01*
X914305Y900000D02*
X916805Y897500D01*
X914050Y900000D02*
X914305D01*
X916805Y897500D02*
X985300D01*
X942317Y787317D02*
Y787317D01*
X925500Y770500D02*
X942317Y787317D01*
X995000Y855657D02*
X997100Y857757D01*
Y842100D02*
Y844573D01*
X942317Y787317D02*
X997100Y842100D01*
Y857757D02*
Y864900D01*
X995000Y846673D02*
Y855657D01*
Y846673D02*
X997100Y844573D01*
X1040000Y874050D02*
X1055000D01*
X1038850Y872900D02*
X1040000Y874050D01*
X1025100Y872900D02*
X1038850D01*
X1024700Y872500D02*
X1025100Y872900D01*
X925500Y760000D02*
Y770500D01*
X997100Y864900D02*
X997500Y865300D01*
X1007500Y858129D02*
Y865300D01*
Y858129D02*
X1009050Y856579D01*
Y850000D02*
Y856579D01*
X1015950Y919645D02*
Y920000D01*
X1012500Y916195D02*
X1015950Y919645D01*
X1012500Y904700D02*
Y916195D01*
X854999Y800001D02*
X855000Y800000D01*
X854999Y800001D02*
Y804243D01*
X854500Y804742D02*
X854999Y804243D01*
X854500Y804742D02*
Y810000D01*
X825000D02*
X845500D01*
X760000Y890000D02*
Y900000D01*
Y890000D02*
X761500Y888500D01*
X773828D01*
X775000Y887328D01*
Y880000D02*
Y887328D01*
Y880000D02*
X778500Y876500D01*
Y866500D02*
Y876500D01*
X780000Y885000D02*
Y895000D01*
Y885000D02*
X783500Y881500D01*
Y866500D02*
Y881500D01*
X710000Y795000D02*
X720000D01*
D11*
X838536Y790000D02*
X840000Y788536D01*
Y780950D02*
Y788536D01*
X824250Y790000D02*
X838536D01*
X839050Y780000D02*
X840000Y780950D01*
X825000Y840462D02*
X845462D01*
X825000Y845000D02*
X829997D01*
X830500Y845502D01*
X825000Y850000D02*
X828633D01*
X837712Y850003D02*
X840172Y852462D01*
X828633Y850000D02*
X828636Y850003D01*
X841522Y845502D02*
X842982Y846963D01*
X830500Y845502D02*
X841522D01*
X828636Y850003D02*
X837712D01*
X840172Y852462D02*
X847462D01*
X865000Y870000D01*
X739720Y801694D02*
X741165Y800250D01*
X736364Y814956D02*
X739720Y811600D01*
Y801694D02*
Y811600D01*
X736364Y814956D02*
Y828636D01*
X737978Y830250D01*
X748430D01*
X748680Y830000D01*
X757000D01*
X812750Y780000D02*
X813500Y780750D01*
Y798500D01*
X745950Y825000D02*
X757000D01*
X745000Y824050D02*
X745950Y825000D01*
X745000Y760000D02*
X773500Y788500D01*
X745000Y728116D02*
Y760000D01*
X773500Y788500D02*
Y798500D01*
X760000Y715000D02*
Y765000D01*
X778500Y783500D01*
Y798500D01*
X748581Y713919D02*
Y724536D01*
Y713919D02*
X748750Y713750D01*
X745000Y728116D02*
X748581Y724536D01*
X760000Y715000D02*
X761250Y713750D01*
X773750Y758750D02*
X783500Y768500D01*
Y798500D01*
X773750Y713750D02*
Y758750D01*
X793500Y866500D02*
Y883500D01*
X805000Y895000D01*
Y905000D01*
X842300Y897196D02*
Y898650D01*
X837930Y892826D02*
X842300Y897196D01*
X837930Y889395D02*
Y892826D01*
X828536Y880000D02*
X837930Y889395D01*
X817886Y880000D02*
X828536D01*
X808500Y870614D02*
X817886Y880000D01*
X808500Y866500D02*
Y870614D01*
X844486Y888136D02*
X855000Y898650D01*
X844486Y884486D02*
Y888136D01*
X835000Y875000D02*
X844486Y884486D01*
X824250Y875000D02*
X835000D01*
X818500Y869250D02*
X824250Y875000D01*
X818500Y866500D02*
Y869250D01*
X867700Y887248D02*
Y898650D01*
Y887248D02*
X870000Y884948D01*
Y875000D02*
Y884948D01*
X865000Y870000D02*
X870000Y875000D01*
X865000Y870000D02*
Y870000D01*
X736250Y758750D02*
X768500Y791000D01*
Y798500D01*
X736250Y713750D02*
Y758750D01*
X702000Y760000D02*
X704000Y762000D01*
X691464Y760000D02*
X702000D01*
X690000Y761464D02*
X691464Y760000D01*
X690000Y761464D02*
Y793536D01*
X691464Y795000D01*
X703536D01*
X705000Y796464D01*
Y820950D01*
X710000Y795000D02*
Y813536D01*
X711464Y815000D01*
X724218D01*
X725682Y816464D01*
Y824318D01*
X736364Y835000D01*
X757000D01*
X720000Y821464D02*
Y825000D01*
X718536Y820000D02*
X720000Y821464D01*
Y825000D02*
X735000Y840000D01*
X705950Y820000D02*
X718536D01*
X705000Y820950D02*
X705950Y820000D01*
X735000Y840000D02*
X757000D01*
X745000Y815950D02*
X746507Y817457D01*
X750342D01*
X752886Y820000D01*
X757000D01*
X818500Y795750D02*
X824250Y790000D01*
X818500Y795750D02*
Y798500D01*
X797250Y780000D02*
Y780250D01*
X800600Y783600D01*
X800850D01*
X808500Y791250D01*
Y798500D01*
D13*
X770000Y915000D02*
D03*
X780000D02*
D03*
X910000D02*
D03*
X845000Y800000D02*
D03*
X770000Y895000D02*
D03*
X780000D02*
D03*
X900000Y915000D02*
D03*
X720000Y795000D02*
D03*
X730000D02*
D03*
X855000Y800000D02*
D03*
X795000Y915000D02*
D03*
X805000D02*
D03*
D14*
X914050Y900000D02*
D03*
X905950D02*
D03*
X1024050Y920000D02*
D03*
X849050Y865000D02*
D03*
X1000950Y850000D02*
D03*
X830950Y780000D02*
D03*
X768100Y880000D02*
D03*
X720950Y805000D02*
D03*
X729050D02*
D03*
X760000Y880000D02*
D03*
X840950Y865000D02*
D03*
X839050Y780000D02*
D03*
X1009050Y850000D02*
D03*
X1015950Y920000D02*
D03*
D15*
X757000Y830000D02*
D03*
X825000Y855000D02*
D03*
X757000Y825000D02*
D03*
Y860000D02*
D03*
Y855000D02*
D03*
Y850000D02*
D03*
Y845000D02*
D03*
Y840000D02*
D03*
Y835000D02*
D03*
Y820000D02*
D03*
Y815000D02*
D03*
Y810000D02*
D03*
Y805000D02*
D03*
X825000D02*
D03*
Y810000D02*
D03*
Y815000D02*
D03*
Y820000D02*
D03*
Y825000D02*
D03*
Y830000D02*
D03*
Y835000D02*
D03*
Y840000D02*
D03*
Y845000D02*
D03*
Y850000D02*
D03*
Y860000D02*
D03*
D16*
X1024700Y897500D02*
D03*
X985300D02*
D03*
X1024700Y892500D02*
D03*
Y887500D02*
D03*
Y882500D02*
D03*
Y877500D02*
D03*
Y872500D02*
D03*
X985300D02*
D03*
Y877500D02*
D03*
Y882500D02*
D03*
Y887500D02*
D03*
Y892500D02*
D03*
D17*
X1055000Y865950D02*
D03*
X1040000D02*
D03*
X745000Y850950D02*
D03*
X705000Y829050D02*
D03*
X745000Y824050D02*
D03*
X1040000Y874050D02*
D03*
X705000Y820950D02*
D03*
X745000Y815950D02*
D03*
Y859050D02*
D03*
X1055000Y874050D02*
D03*
D18*
X1012500Y865300D02*
D03*
X1002500D02*
D03*
X992500Y904700D02*
D03*
X997500D02*
D03*
X1002500D02*
D03*
X1007500D02*
D03*
X1012500D02*
D03*
X1017500D02*
D03*
Y865300D02*
D03*
X1007500D02*
D03*
X997500D02*
D03*
X992500D02*
D03*
D19*
X899962Y859962D02*
D03*
Y833962D02*
D03*
Y840462D02*
D03*
Y846963D02*
D03*
Y853463D02*
D03*
D20*
X960000Y767250D02*
D03*
X840000Y737750D02*
D03*
X720000Y845000D02*
D03*
Y860500D02*
D03*
X960000Y782750D02*
D03*
X840000Y722250D02*
D03*
D21*
X950000Y735000D02*
D03*
Y745000D02*
D03*
D22*
X955000Y690000D02*
D03*
X887250Y760000D02*
D03*
X812750Y780000D02*
D03*
X797250D02*
D03*
X970500Y690000D02*
D03*
X902750Y760000D02*
D03*
D23*
X867050Y722900D02*
D03*
D24*
X768500Y866500D02*
D03*
X813500Y798500D02*
D03*
X783500Y866500D02*
D03*
X763500Y798500D02*
D03*
X768500D02*
D03*
X773500D02*
D03*
X778500D02*
D03*
X783500D02*
D03*
X788500D02*
D03*
X793500D02*
D03*
X798500D02*
D03*
X803500D02*
D03*
X808500D02*
D03*
X818500D02*
D03*
Y866500D02*
D03*
X813500D02*
D03*
X808500D02*
D03*
X803500D02*
D03*
X798500D02*
D03*
X793500D02*
D03*
X788500D02*
D03*
X778500D02*
D03*
X773500D02*
D03*
X763500D02*
D03*
D25*
X791000Y832500D02*
D03*
D26*
X786250Y713750D02*
D03*
X723750D02*
D03*
X736250D02*
D03*
X748750D02*
D03*
X761250D02*
D03*
X773750D02*
D03*
D27*
X726000Y762000D02*
D03*
X704000Y778000D02*
D03*
X726000D02*
D03*
X704000Y762000D02*
D03*
D28*
X845500Y810000D02*
D03*
X854500D02*
D03*
X925500Y760000D02*
D03*
X934500D02*
D03*
D29*
X1045000Y685500D02*
D03*
Y784500D02*
D03*
D30*
X705250Y681750D02*
D03*
X804750D02*
D03*
D31*
X926562Y813213D02*
D03*
Y880713D02*
D03*
D32*
Y835462D02*
D03*
D33*
Y862462D02*
D03*
D34*
X900813Y822087D02*
D03*
Y871837D02*
D03*
D35*
X867050Y700000D02*
D03*
Y677100D02*
D03*
D36*
X932950Y700000D02*
D03*
D38*
X867700Y911350D02*
D03*
X855000D02*
D03*
X842300D02*
D03*
Y898650D02*
D03*
X855000D02*
D03*
X867700D02*
D03*
D44*
X880400Y905000D02*
D03*
X829600Y894840D02*
D03*
Y915160D02*
D03*
D45*
X795000Y925000D02*
D03*
X815000D02*
D03*
D46*
X741165Y800250D02*
D03*
D47*
X802000Y854500D02*
D03*
X791000D02*
D03*
X813000D02*
D03*
X791000Y843500D02*
D03*
X780000Y854500D02*
D03*
Y843500D02*
D03*
X813000D02*
D03*
X802000D02*
D03*
X813000Y832500D02*
D03*
X802000D02*
D03*
X780000D02*
D03*
X769000D02*
D03*
X791000D02*
D03*
X769000Y854500D02*
D03*
Y843500D02*
D03*
X813000Y821500D02*
D03*
X802000D02*
D03*
Y810500D02*
D03*
X791000D02*
D03*
Y821500D02*
D03*
X780000Y810500D02*
D03*
X813000D02*
D03*
X769000Y821500D02*
D03*
X780000D02*
D03*
X769000Y810500D02*
D03*
D48*
X812750Y780000D02*
X815000Y777750D01*
X842982Y846963D02*
X899962D01*
X845462Y840462D02*
X899962D01*
D49*
X835992Y855000D02*
X838205Y857213D01*
X843146D01*
X825000Y855000D02*
X835992D01*
X830000Y860000D02*
X835000Y865000D01*
X825000Y860000D02*
X830000D01*
X825000Y860000D02*
X825000Y860000D01*
X843146Y857213D02*
X847639Y861705D01*
Y863589D02*
X849050Y865000D01*
X847639Y861705D02*
Y863589D01*
X768500Y866500D02*
Y879600D01*
X768100Y880000D02*
X768500Y879600D01*
X835000Y865000D02*
X840950D01*
X760000Y872250D02*
Y880000D01*
Y872250D02*
X763500Y868750D01*
Y866500D02*
Y868750D01*
X745000Y859050D02*
X745700Y859750D01*
X756750D01*
X757000Y860000D01*
D50*
X670000Y652232D02*
X671488Y650744D01*
X1123512D01*
X670000Y652232D02*
Y945000D01*
X1125000Y652232D02*
Y950000D01*
X1123512Y650744D02*
X1125000Y652232D01*
X670000Y950000D02*
X675000D01*
X670000Y945000D02*
Y950000D01*
X675000D02*
X1125000D01*
M02*
