M48
;Layer_Color=9474304
;FILE_FORMAT=4:4
METRIC,LZ
T05F00S00C5.0800
%
G90
G05
T05
G00X0112856Y00625851
M15
G01X01133407Y00627351
G01X01137859Y00629784
G01X01141473Y00632783
G01X0114296Y00634271
G01X01146172Y00638199
G01X01148538Y00642687
G01X01149966Y00647556
G01X011504Y00652232
G01X011504Y0095
G01X01149893Y00955048
G01X01148393Y00959895
G01X0114596Y00964347
G01X0114269Y00968227
G01X01138715Y00971379
G01X01134192Y00973678
G01X01129303Y00975033
G01X01125Y009754
G01X0067Y009754
G01X00664952Y00974893
G01X00660105Y00973393
G01X00655653Y0097096
G01X00651773Y0096769
G01X00648621Y00963715
G01X00646322Y00959192
G01X00644967Y00954303
G01X006446Y0095
G01X006446Y00652232
G01X00645107Y00647184
G01X00646607Y00642337
G01X0064904Y00637885
G01X0065204Y00634271
G01X00653527Y00632783
G01X00657455Y00629572
G01X00661943Y00627205
G01X00666812Y00625778
G01X00671488Y00625344
G01X01123512Y00625344
G01X0112856Y00625851
M16
M17
M30
